<svg width="432" height="321" viewBox="0 0 432 321" fill="none" xmlns="http://www.w3.org/2000/svg">
<g filter="url(#filter0_d)">
<rect x="16" y="12" width="400" height="289" rx="4" fill="#180551"/>
</g>
<g filter="url(#filter1_d)">
<rect x="31" y="24" width="176" height="265" rx="2" fill="url(#paint0_linear)"/>
</g>
<path d="M43 43H52.0234V36.9844H43V43ZM51.75 43H60.7734V36.9844H51.75V43ZM60.5 43H69.5234V36.9844H60.5V43ZM69.25 43H78.2734V36.9844H69.25V43ZM78 43H87.0234V36.9844H78V43ZM86.75 43H95.7734V36.9844H86.75V43ZM95.5 43H104.523V36.9844H95.5V43ZM104.25 43H113.273V36.9844H104.25V43ZM113 43H122.023V36.9844H113V43ZM139.305 43H148.328V36.9844H139.305V43ZM148.055 43H157.078V36.9844H148.055V43ZM156.805 43H165.828V36.9844H156.805V43ZM43 63H52.0234V56.9844H43V63ZM51.75 63H60.7734V56.9844H51.75V63ZM60.5 63H69.5234V56.9844H60.5V63ZM69.25 63H78.2734V56.9844H69.25V63ZM78 63H87.0234V56.9844H78V63ZM86.75 63H95.7734V56.9844H86.75V63ZM95.5 63H104.523V56.9844H95.5V63ZM104.25 63H113.273V56.9844H104.25V63ZM113 63H122.023V56.9844H113V63ZM121.75 63H130.773V56.9844H121.75V63ZM148.055 63H157.078V56.9844H148.055V63ZM156.805 63H165.828V56.9844H156.805V63ZM43 83H52.0234V76.9844H43V83ZM51.75 83H60.7734V76.9844H51.75V83ZM60.5 83H69.5234V76.9844H60.5V83ZM69.25 83H78.2734V76.9844H69.25V83ZM95.5547 83H104.578V76.9844H95.5547V83ZM104.305 83H113.328V76.9844H104.305V83ZM130.609 83H139.633V76.9844H130.609V83ZM139.359 83H148.383V76.9844H139.359V83ZM148.109 83H157.133V76.9844H148.109V83ZM156.859 83H165.883V76.9844H156.859V83ZM165.609 83H174.633V76.9844H165.609V83ZM43 103H52.0234V96.9844H43V103ZM51.75 103H60.7734V96.9844H51.75V103ZM60.5 103H69.5234V96.9844H60.5V103ZM69.25 103H78.2734V96.9844H69.25V103ZM78 103H87.0234V96.9844H78V103ZM86.75 103H95.7734V96.9844H86.75V103ZM95.5 103H104.523V96.9844H95.5V103ZM104.25 103H113.273V96.9844H104.25V103ZM113 103H122.023V96.9844H113V103ZM43 123H52.0234V116.984H43V123ZM51.75 123H60.7734V116.984H51.75V123ZM60.5 123H69.5234V116.984H60.5V123ZM69.25 123H78.2734V116.984H69.25V123ZM78 123H87.0234V116.984H78V123ZM86.75 123H95.7734V116.984H86.75V123ZM95.5 123H104.523V116.984H95.5V123ZM121.805 123H130.828V116.984H121.805V123ZM130.555 123H139.578V116.984H130.555V123ZM139.305 123H148.328V116.984H139.305V123ZM148.055 123H157.078V116.984H148.055V123ZM174.359 123H183.383V116.984H174.359V123ZM183.109 123H192.133V116.984H183.109V123ZM43 143H52.0234V136.984H43V143ZM51.75 143H60.7734V136.984H51.75V143ZM60.5 143H69.5234V136.984H60.5V143ZM69.25 143H78.2734V136.984H69.25V143ZM78 143H87.0234V136.984H78V143ZM86.75 143H95.7734V136.984H86.75V143ZM95.5 143H104.523V136.984H95.5V143ZM104.25 143H113.273V136.984H104.25V143ZM130.555 143H139.578V136.984H130.555V143ZM139.305 143H148.328V136.984H139.305V143ZM148.055 143H157.078V136.984H148.055V143ZM156.805 143H165.828V136.984H156.805V143ZM165.555 143H174.578V136.984H165.555V143ZM174.305 143H183.328V136.984H174.305V143ZM43 163H52.0234V156.984H43V163ZM69.3047 163H78.3281V156.984H69.3047V163ZM78.0547 163H87.0781V156.984H78.0547V163ZM86.8047 163H95.8281V156.984H86.8047V163ZM95.5547 163H104.578V156.984H95.5547V163ZM104.305 163H113.328V156.984H104.305V163ZM130.609 163H139.633V156.984H130.609V163ZM139.359 163H148.383V156.984H139.359V163ZM148.109 163H157.133V156.984H148.109V163ZM156.859 163H165.883V156.984H156.859V163ZM43 183H52.0234V176.984H43V183ZM51.75 183H60.7734V176.984H51.75V183ZM60.5 183H69.5234V176.984H60.5V183ZM69.25 183H78.2734V176.984H69.25V183ZM78 183H87.0234V176.984H78V183ZM43 203H52.0234V196.984H43V203ZM51.75 203H60.7734V196.984H51.75V203ZM60.5 203H69.5234V196.984H60.5V203ZM69.25 203H78.2734V196.984H69.25V203ZM78 203H87.0234V196.984H78V203ZM104.305 203H113.328V196.984H104.305V203ZM113.055 203H122.078V196.984H113.055V203ZM121.805 203H130.828V196.984H121.805V203ZM148.109 203H157.133V196.984H148.109V203ZM156.859 203H165.883V196.984H156.859V203ZM165.609 203H174.633V196.984H165.609V203ZM43 223H52.0234V216.984H43V223ZM51.75 223H60.7734V216.984H51.75V223ZM60.5 223H69.5234V216.984H60.5V223ZM69.25 223H78.2734V216.984H69.25V223ZM43 243H52.0234V236.984H43V243ZM51.75 243H60.7734V236.984H51.75V243ZM60.5 243H69.5234V236.984H60.5V243ZM69.25 243H78.2734V236.984H69.25V243ZM78 243H87.0234V236.984H78V243ZM86.75 243H95.7734V236.984H86.75V243ZM95.5 243H104.523V236.984H95.5V243ZM104.25 243H113.273V236.984H104.25V243ZM113 243H122.023V236.984H113V243ZM121.75 243H130.773V236.984H121.75V243ZM130.5 243H139.523V236.984H130.5V243ZM139.25 243H148.273V236.984H139.25V243ZM148 243H157.023V236.984H148V243ZM174.305 243H183.328V236.984H174.305V243ZM183.055 243H192.078V236.984H183.055V243ZM43 263H52.0234V256.984H43V263ZM51.75 263H60.7734V256.984H51.75V263ZM60.5 263H69.5234V256.984H60.5V263ZM69.25 263H78.2734V256.984H69.25V263ZM78 263H87.0234V256.984H78V263ZM86.75 263H95.7734V256.984H86.75V263ZM95.5 263H104.523V256.984H95.5V263ZM121.805 263H130.828V256.984H121.805V263ZM130.555 263H139.578V256.984H130.555V263ZM43 283H52.0234V276.984H43V283ZM51.75 283H60.7734V276.984H51.75V283ZM60.5 283H69.5234V276.984H60.5V283ZM69.25 283H78.2734V276.984H69.25V283ZM78 283H87.0234V276.984H78V283ZM86.75 283H95.7734V276.984H86.75V283ZM95.5 283H104.523V276.984H95.5V283ZM104.25 283H113.273V276.984H104.25V283ZM130.555 283H139.578V276.984H130.555V283ZM139.305 283H148.328V276.984H139.305V283ZM148.055 283H157.078V276.984H148.055V283ZM156.805 283H165.828V276.984H156.805V283ZM165.555 283H174.578V276.984H165.555V283ZM174.305 283H183.328V276.984H174.305V283Z" fill="#180551"/>
<g style="mix-blend-mode:multiply">
<rect x="43" y="54" width="88" height="12" rx="2" fill="#FBC26E"/>
</g>
<g style="mix-blend-mode:multiply">
<rect x="43" y="114" width="62" height="12" rx="2" fill="#FBC26E"/>
</g>
<g style="mix-blend-mode:multiply">
<rect x="122" y="114" width="35" height="12" rx="2" fill="#FBC26E"/>
</g>
<g style="mix-blend-mode:multiply">
<rect x="43" y="134" width="71" height="12" rx="2" fill="#FBC26E"/>
</g>
<g style="mix-blend-mode:multiply">
<rect x="43" y="174" width="44" height="12" rx="2" fill="#FBC26E"/>
</g>
<g style="mix-blend-mode:multiply">
<rect x="43" y="214" width="35" height="12" rx="2" fill="#FBC26E"/>
</g>
<g style="mix-blend-mode:multiply">
<rect x="130" y="134" width="54" height="12" rx="2" fill="#FBC26E"/>
</g>
<g style="mix-blend-mode:multiply">
<rect x="148" y="194" width="27" height="12" rx="2" fill="#FBC26E"/>
</g>
<g style="mix-blend-mode:multiply">
<rect x="174" y="114" width="18" height="12" rx="2" fill="#FBC26E"/>
</g>
<g style="mix-blend-mode:multiply">
<rect x="148" y="54" width="18" height="12" rx="2" fill="#FBC26E"/>
</g>
<g style="mix-blend-mode:multiply">
<rect x="139" y="34" width="27" height="12" rx="2" fill="#FBC26E"/>
</g>
<g style="mix-blend-mode:multiply">
<rect x="95" y="74" width="19" height="12" rx="2" fill="#FBC26E"/>
</g>
<g style="mix-blend-mode:multiply">
<rect x="130" y="74" width="45" height="12" rx="2" fill="#FBC26E"/>
</g>
<g filter="url(#filter2_d)">
<rect x="223" y="24" width="177" height="265" rx="2" fill="url(#paint1_linear)"/>
</g>
<path d="M231 42.0557H240.023V36.04H231V42.0557ZM239.75 42.0557H248.773V36.04H239.75V42.0557ZM248.5 42.0557H257.523V36.04H248.5V42.0557ZM274.805 42.0557H283.828V36.04H274.805V42.0557ZM283.555 42.0557H292.578V36.04H283.555V42.0557ZM292.305 42.0557H301.328V36.04H292.305V42.0557ZM301.055 42.0557H310.078V36.04H301.055V42.0557ZM309.805 42.0557H318.828V36.04H309.805V42.0557ZM318.555 42.0557H327.578V36.04H318.555V42.0557ZM327.305 42.0557H336.328V36.04H327.305V42.0557ZM336.055 42.0557H345.078V36.04H336.055V42.0557ZM344.805 42.0557H353.828V36.04H344.805V42.0557ZM353.555 42.0557H362.578V36.04H353.555V42.0557ZM231 62.0557H240.023V56.04H231V62.0557ZM239.75 62.0557H248.773V56.04H239.75V62.0557ZM231 82.0557H240.023V76.04H231V82.0557ZM239.75 82.0557H248.773V76.04H239.75V82.0557ZM266.055 82.0557H275.078V76.04H266.055V82.0557ZM274.805 82.0557H283.828V76.04H274.805V82.0557ZM283.555 82.0557H292.578V76.04H283.555V82.0557ZM292.305 82.0557H301.328V76.04H292.305V82.0557ZM301.055 82.0557H310.078V76.04H301.055V82.0557ZM231 102.056H240.023V96.04H231V102.056ZM239.75 102.056H248.773V96.04H239.75V102.056ZM248.5 102.056H257.523V96.04H248.5V102.056ZM257.25 102.056H266.273V96.04H257.25V102.056ZM266 102.056H275.023V96.04H266V102.056ZM274.75 102.056H283.773V96.04H274.75V102.056ZM283.5 102.056H292.523V96.04H283.5V102.056ZM309.805 102.056H318.828V96.04H309.805V102.056ZM318.555 102.056H327.578V96.04H318.555V102.056ZM327.305 102.056H336.328V96.04H327.305V102.056ZM336.055 102.056H345.078V96.04H336.055V102.056ZM362.359 102.056H371.383V96.04H362.359V102.056ZM371.109 102.056H380.133V96.04H371.109V102.056ZM231 122.056H240.023V116.04H231V122.056ZM239.75 122.056H248.773V116.04H239.75V122.056ZM248.5 122.056H257.523V116.04H248.5V122.056ZM257.25 122.056H266.273V116.04H257.25V122.056ZM266 122.056H275.023V116.04H266V122.056ZM274.75 122.056H283.773V116.04H274.75V122.056ZM283.5 122.056H292.523V116.04H283.5V122.056ZM292.25 122.056H301.273V116.04H292.25V122.056ZM318.555 122.056H327.578V116.04H318.555V122.056ZM327.305 122.056H336.328V116.04H327.305V122.056ZM336.055 122.056H345.078V116.04H336.055V122.056ZM344.805 122.056H353.828V116.04H344.805V122.056ZM353.555 122.056H362.578V116.04H353.555V122.056ZM362.305 122.056H371.328V116.04H362.305V122.056ZM231 142.056H240.023V136.04H231V142.056ZM239.75 142.056H248.773V136.04H239.75V142.056ZM248.5 142.056H257.523V136.04H248.5V142.056ZM257.25 142.056H266.273V136.04H257.25V142.056ZM266 142.056H275.023V136.04H266V142.056ZM231 162.056H240.023V156.04H231V162.056ZM239.75 162.056H248.773V156.04H239.75V162.056ZM248.5 162.056H257.523V156.04H248.5V162.056ZM231 182.056H240.023V176.04H231V182.056ZM239.75 182.056H248.773V176.04H239.75V182.056ZM248.5 182.056H257.523V176.04H248.5V182.056ZM257.25 182.056H266.273V176.04H257.25V182.056Z" fill="black"/>
<g style="mix-blend-mode:multiply">
<rect x="275" y="33.073" width="88" height="12.0417" rx="2" fill="#FBC26E"/>
</g>
<g style="mix-blend-mode:multiply">
<rect x="231" y="93.2812" width="62" height="12.0417" rx="2" fill="#FBC26E"/>
</g>
<g style="mix-blend-mode:multiply">
<rect x="310" y="93.2812" width="35" height="12.0417" rx="2" fill="#FBC26E"/>
</g>
<g style="mix-blend-mode:multiply">
<rect x="231" y="113.351" width="71" height="12.0417" rx="2" fill="#FBC26E"/>
</g>
<g style="mix-blend-mode:multiply">
<rect x="231" y="133.42" width="44" height="12.0417" rx="2" fill="#FBC26E"/>
</g>
<g style="mix-blend-mode:multiply">
<rect x="231" y="173.559" width="35" height="12.0417" rx="2" fill="#FBC26E"/>
</g>
<g style="mix-blend-mode:multiply">
<rect x="318" y="113.351" width="54" height="12.0417" rx="2" fill="#FBC26E"/>
</g>
<g style="mix-blend-mode:multiply">
<rect x="231" y="153.49" width="27" height="12.0417" rx="2" fill="#FBC26E"/>
</g>
<g style="mix-blend-mode:multiply">
<rect x="362" y="93.2812" width="18" height="12.0417" rx="2" fill="#FBC26E"/>
</g>
<g style="mix-blend-mode:multiply">
<rect x="231" y="53.1423" width="18" height="12.0417" rx="2" fill="#FBC26E"/>
</g>
<g style="mix-blend-mode:multiply">
<rect x="231" y="33.073" width="27" height="12.0417" rx="2" fill="#FBC26E"/>
</g>
<g style="mix-blend-mode:multiply">
<rect x="231" y="73.2119" width="19" height="12.0417" rx="2" fill="#FBC26E"/>
</g>
<g style="mix-blend-mode:multiply">
<rect x="266" y="73.2119" width="45" height="12.0417" rx="2" fill="#FBC26E"/>
</g>
<g filter="url(#filter3_bdi)">
<path d="M172.028 254.589C168.763 254.021 165.656 256.208 165.089 259.472C164.521 262.737 166.708 265.844 169.972 266.411L172.028 254.589ZM305.763 154.049C302.476 153.627 299.47 155.95 299.049 159.237L292.182 212.799C291.76 216.085 294.083 219.092 297.37 219.513C300.657 219.934 303.663 217.611 304.084 214.325L310.188 166.714L357.799 172.818C361.085 173.24 364.092 170.917 364.513 167.63C364.934 164.343 362.611 161.337 359.325 160.916L305.763 154.049ZM171 260.5C169.972 266.411 169.975 266.412 169.978 266.412C169.98 266.413 169.985 266.413 169.989 266.414C169.999 266.416 170.012 266.418 170.028 266.421C170.062 266.427 170.11 266.435 170.172 266.446C170.297 266.467 170.48 266.498 170.718 266.537C171.193 266.616 171.89 266.729 172.79 266.87C174.589 267.152 177.201 267.545 180.479 267.992C187.031 268.886 196.258 270 206.983 270.886C228.345 272.65 256 273.536 280.346 269.806C292.52 267.94 304.159 264.879 313.857 260.001C323.578 255.111 331.704 248.206 336.135 238.529C345.057 219.042 337.509 192.258 309.748 156.331L300.252 163.669C327.741 199.242 331.068 220.77 325.224 233.534C322.272 239.981 316.605 245.186 308.465 249.281C300.301 253.387 290.012 256.185 278.529 257.944C255.562 261.464 228.999 260.663 207.97 258.927C197.499 258.062 188.488 256.973 182.101 256.102C178.909 255.666 176.376 255.286 174.648 255.015C173.784 254.879 173.121 254.772 172.678 254.698C172.457 254.662 172.29 254.633 172.181 254.615C172.127 254.606 172.086 254.599 172.061 254.594C172.048 254.592 172.039 254.591 172.033 254.59C172.03 254.589 172.029 254.589 172.027 254.589C172.027 254.589 172.028 254.589 171 260.5Z" fill="#FF705C"/>
</g>
<defs>
<filter id="filter0_d" x="0" y="0" width="432" height="321" filterUnits="userSpaceOnUse" color-interpolation-filters="sRGB">
<feFlood flood-opacity="0" result="BackgroundImageFix"/>
<feColorMatrix in="SourceAlpha" type="matrix" values="0 0 0 0 0 0 0 0 0 0 0 0 0 0 0 0 0 0 127 0"/>
<feOffset dy="4"/>
<feGaussianBlur stdDeviation="8"/>
<feColorMatrix type="matrix" values="0 0 0 0 0.483333 0 0 0 0 0.483333 0 0 0 0 0.483333 0 0 0 1 0"/>
<feBlend mode="normal" in2="BackgroundImageFix" result="effect1_dropShadow"/>
<feBlend mode="normal" in="SourceGraphic" in2="effect1_dropShadow" result="shape"/>
</filter>
<filter id="filter1_d" x="27" y="24" width="184" height="273" filterUnits="userSpaceOnUse" color-interpolation-filters="sRGB">
<feFlood flood-opacity="0" result="BackgroundImageFix"/>
<feColorMatrix in="SourceAlpha" type="matrix" values="0 0 0 0 0 0 0 0 0 0 0 0 0 0 0 0 0 0 127 0"/>
<feOffset dy="4"/>
<feGaussianBlur stdDeviation="2"/>
<feColorMatrix type="matrix" values="0 0 0 0 0 0 0 0 0 0 0 0 0 0 0 0 0 0 0.5 0"/>
<feBlend mode="normal" in2="BackgroundImageFix" result="effect1_dropShadow"/>
<feBlend mode="normal" in="SourceGraphic" in2="effect1_dropShadow" result="shape"/>
</filter>
<filter id="filter2_d" x="219" y="24" width="185" height="273" filterUnits="userSpaceOnUse" color-interpolation-filters="sRGB">
<feFlood flood-opacity="0" result="BackgroundImageFix"/>
<feColorMatrix in="SourceAlpha" type="matrix" values="0 0 0 0 0 0 0 0 0 0 0 0 0 0 0 0 0 0 127 0"/>
<feOffset dy="4"/>
<feGaussianBlur stdDeviation="2"/>
<feColorMatrix type="matrix" values="0 0 0 0 0 0 0 0 0 0 0 0 0 0 0 0 0 0 0.5 0"/>
<feBlend mode="normal" in2="BackgroundImageFix" result="effect1_dropShadow"/>
<feBlend mode="normal" in="SourceGraphic" in2="effect1_dropShadow" result="shape"/>
</filter>
<filter id="filter3_bdi" x="148.999" y="141.999" width="231.563" height="150.408" filterUnits="userSpaceOnUse" color-interpolation-filters="sRGB">
<feFlood flood-opacity="0" result="BackgroundImageFix"/>
<feGaussianBlur in="BackgroundImage" stdDeviation="4"/>
<feComposite in2="SourceAlpha" operator="in" result="effect1_backgroundBlur"/>
<feColorMatrix in="SourceAlpha" type="matrix" values="0 0 0 0 0 0 0 0 0 0 0 0 0 0 0 0 0 0 127 0"/>
<feOffset dy="4"/>
<feGaussianBlur stdDeviation="8"/>
<feColorMatrix type="matrix" values="0 0 0 0 0 0 0 0 0 0 0 0 0 0 0 0 0 0 0.5 0"/>
<feBlend mode="normal" in2="effect1_backgroundBlur" result="effect2_dropShadow"/>
<feBlend mode="normal" in="SourceGraphic" in2="effect2_dropShadow" result="shape"/>
<feColorMatrix in="SourceAlpha" type="matrix" values="0 0 0 0 0 0 0 0 0 0 0 0 0 0 0 0 0 0 127 0" result="hardAlpha"/>
<feOffset dy="4"/>
<feGaussianBlur stdDeviation="2"/>
<feComposite in2="hardAlpha" operator="arithmetic" k2="-1" k3="1"/>
<feColorMatrix type="matrix" values="0 0 0 0 0.964706 0 0 0 0 0.282353 0 0 0 0 0.282353 0 0 0 1 0"/>
<feBlend mode="normal" in2="shape" result="effect3_innerShadow"/>
</filter>
<linearGradient id="paint0_linear" x1="119" y1="24" x2="119" y2="289" gradientUnits="userSpaceOnUse">
<stop stop-color="white"/>
<stop offset="1" stop-color="#F6F7FB"/>
</linearGradient>
<linearGradient id="paint1_linear" x1="311.5" y1="24" x2="311.5" y2="289" gradientUnits="userSpaceOnUse">
<stop stop-color="white"/>
<stop offset="1" stop-color="#F6F7FB"/>
</linearGradient>
</defs>
</svg>
