<svg width="304" height="224" viewBox="0 0 304 224" fill="none" xmlns="http://www.w3.org/2000/svg">
<rect x="0.5" y="11.8898" width="303" height="211.61" fill="#F6F7FB" stroke="#E1E1E1"/>
<rect x="65.0145" y="86.8729" width="173.302" height="120.492" rx="1.5" fill="#FDFDFD" stroke="#EFEFEF"/>
<rect x="64.5145" y="33.2203" width="81.209" height="7.59322" rx="1" fill="#929292"/>
<rect x="64.5145" y="48.4068" width="110.92" height="15.1864" fill="#E1E1E1"/>
<rect x="64.5145" y="71.1864" width="39.6142" height="7.59322" fill="#D2D2D2"/>
<rect x="190.611" y="71.1864" width="47.537" height="7.59322" fill="#53B27C"/>
<path d="M71.3055 98.9661H76.4617V95.5286H71.3055V98.9661ZM76.3055 98.9661H81.4617V95.5286H76.3055V98.9661ZM81.3055 98.9661H86.4617V95.5286H81.3055V98.9661ZM86.3055 98.9661H91.4617V95.5286H86.3055V98.9661ZM101.337 98.9661H106.493V95.5286H101.337V98.9661ZM106.337 98.9661H111.493V95.5286H106.337V98.9661ZM111.337 98.9661H116.493V95.5286H111.337V98.9661ZM116.337 98.9661H121.493V95.5286H116.337V98.9661ZM121.337 98.9661H126.493V95.5286H121.337V98.9661ZM126.337 98.9661H131.493V95.5286H126.337V98.9661ZM141.368 98.9661H146.524V95.5286H141.368V98.9661ZM146.368 98.9661H151.524V95.5286H146.368V98.9661ZM151.368 98.9661H156.524V95.5286H151.368V98.9661ZM156.368 98.9661H161.524V95.5286H156.368V98.9661ZM161.368 98.9661H166.524V95.5286H161.368V98.9661ZM71.3055 103.966H76.4617V100.529H71.3055V103.966ZM76.3055 103.966H81.4617V100.529H76.3055V103.966ZM81.3055 103.966H86.4617V100.529H81.3055V103.966Z" fill="#4A5DA9"/>
<path d="M0 4C0 1.79086 1.79086 0 4 0H300C302.209 0 304 1.79086 304 4V11.3898H0V4Z" fill="#E1E1E1"/>
<ellipse cx="10.8939" cy="5.69492" rx="2.97106" ry="2.84746" fill="#F64848"/>
<ellipse cx="19.8071" cy="5.69492" rx="2.97106" ry="2.84746" fill="#FFC803"/>
<ellipse cx="28.7203" cy="5.69492" rx="2.97106" ry="2.84746" fill="#53B27C"/>
</svg>
