<svg width="1504" height="848" viewBox="0 0 1504 848" fill="none" xmlns="http://www.w3.org/2000/svg">
<rect width="1504" height="848" fill="#DFE9F8"/>
<path d="M491.062 391.359V459H505.219V437.672H517.875C532.125 437.672 542.016 428.391 542.016 414.516C542.016 400.594 532.453 391.359 518.578 391.359H491.062ZM505.219 402.562H514.828C522.938 402.562 527.625 406.875 527.625 414.562C527.625 422.297 522.891 426.609 514.781 426.609H505.219V402.562ZM594.141 447.281H564.562V391.359H550.406V459H594.141V447.281ZM646.828 459H661.875L638.344 391.359H621.703L598.219 459H612.75L617.906 442.594H641.672L646.828 459ZM629.625 404.297H629.953L638.625 432H620.953L629.625 404.297ZM695.438 460.172C712.031 460.172 723.609 450.609 725.203 435.516H711.422C709.922 443.531 703.875 448.453 695.484 448.453C684.656 448.453 677.859 439.547 677.859 425.109C677.859 410.859 684.75 401.906 695.438 401.906C703.688 401.906 710.062 407.344 711.375 415.641H725.156C724.078 400.5 711.703 390.188 695.438 390.188C675.844 390.188 663.422 403.359 663.422 425.156C663.422 447 675.75 460.172 695.438 460.172ZM778.781 447.281H748.125V430.219H777.047V419.344H748.125V403.031H778.781V391.359H733.969V459H778.781V447.281ZM847.781 459V391.359H833.625V418.828H803.156V391.359H789V459H803.156V430.5H833.625V459H847.781ZM889.547 390.188C869.484 390.188 856.922 403.641 856.922 425.203C856.922 446.719 869.484 460.172 889.547 460.172C909.562 460.172 922.172 446.719 922.172 425.203C922.172 403.641 909.562 390.188 889.547 390.188ZM889.547 402C900.609 402 907.688 411 907.688 425.203C907.688 439.359 900.609 448.312 889.547 448.312C878.438 448.312 871.359 439.359 871.359 425.203C871.359 411 878.484 402 889.547 402ZM975.047 447.281H945.469V391.359H931.312V459H975.047V447.281ZM983.438 391.359V459H1009.27C1029.56 459 1041.52 446.391 1041.52 424.922C1041.52 403.453 1029.56 391.359 1009.27 391.359H983.438ZM997.594 403.031H1007.58C1020.05 403.031 1027.08 410.812 1027.08 424.969C1027.08 439.594 1020.23 447.281 1007.58 447.281H997.594V403.031ZM1095.47 447.281H1064.81V430.219H1093.73V419.344H1064.81V403.031H1095.47V391.359H1050.66V459H1095.47V447.281ZM1119.84 402.422H1131.89C1138.92 402.422 1143.33 406.641 1143.33 413.203C1143.33 419.906 1139.16 423.984 1132.03 423.984H1119.84V402.422ZM1119.84 434.25H1131.19L1143.8 459H1159.83L1145.58 432.141C1153.36 429.094 1157.86 421.594 1157.86 412.922C1157.86 399.562 1148.95 391.359 1133.39 391.359H1105.69V459H1119.84V434.25Z" fill="#525E71"/>
<circle cx="389" cy="424" r="48" fill="#525E71"/>
<path fill-rule="evenodd" clip-rule="evenodd" d="M410 394H368C362.9 394 359 397.9 359 403V445C359 450.1 362.9 454 368 454H410C415.1 454 419 450.1 419 445V403C419 397.9 415.1 394 410 394ZM365 403C365 401.2 366.2 400 368 400H410C411.8 400 413 401.2 413 403V425.8L403.1 415.9C401.9 414.7 400.1 414.7 398.9 415.9L367.1 447.7C365.9 447.4 365 446.2 365 445V403ZM375.197 448H409.997C411.797 448 412.997 446.8 412.997 445V434.2L400.997 422.2L375.197 448ZM378.5 421C382.7 421 386 417.7 386 413.5C386 409.3 382.7 406 378.5 406C374.3 406 371 409.3 371 413.5C371 417.7 374.3 421 378.5 421ZM380 413.5C380 412.6 379.4 412 378.5 412C377.6 412 377 412.6 377 413.5C377 414.4 377.6 415 378.5 415C379.4 415 380 414.4 380 413.5Z" fill="#DFE9F8"/>
<mask id="mask0" mask-type="alpha" maskUnits="userSpaceOnUse" x="359" y="394" width="60" height="60">
<path fill-rule="evenodd" clip-rule="evenodd" d="M410 394H368C362.9 394 359 397.9 359 403V445C359 450.1 362.9 454 368 454H410C415.1 454 419 450.1 419 445V403C419 397.9 415.1 394 410 394ZM365 403C365 401.2 366.2 400 368 400H410C411.8 400 413 401.2 413 403V425.8L403.1 415.9C401.9 414.7 400.1 414.7 398.9 415.9L367.1 447.7C365.9 447.4 365 446.2 365 445V403ZM375.197 448H409.997C411.797 448 412.997 446.8 412.997 445V434.2L400.997 422.2L375.197 448ZM378.5 421C382.7 421 386 417.7 386 413.5C386 409.3 382.7 406 378.5 406C374.3 406 371 409.3 371 413.5C371 417.7 374.3 421 378.5 421ZM380 413.5C380 412.6 379.4 412 378.5 412C377.6 412 377 412.6 377 413.5C377 414.4 377.6 415 378.5 415C379.4 415 380 414.4 380 413.5Z" fill="white"/>
</mask>
<g mask="url(#mask0)">
<rect x="353" y="388" width="72" height="72" fill="#DFE9F8"/>
</g>
</svg>
