<svg width="1680" height="2268" viewBox="0 0 1680 2268" fill="none" xmlns="http://www.w3.org/2000/svg">
<g opacity="0.7">
<circle cx="1069" cy="959" r="263.5" stroke="#464794" stroke-opacity="0.4"/>
<path d="M744.5 2044.5C744.5 2167.66 644.437 2267.5 521 2267.5C397.563 2267.5 297.5 2167.66 297.5 2044.5C297.5 1921.34 397.563 1821.5 521 1821.5C644.437 1821.5 744.5 1921.34 744.5 2044.5Z" stroke="#464794" stroke-opacity="0.15"/>
<circle cx="1203" cy="1678" r="263.5" stroke="#464794" stroke-opacity="0.25"/>
<circle cx="-68.5" cy="98.5" r="207" stroke="#464794" stroke-opacity="0.2"/>
<circle cx="72.5" cy="190.5" r="141" stroke="#464794" stroke-opacity="0.2"/>
<circle cx="232" cy="301" r="93.5" stroke="#464794" stroke-opacity="0.2"/>
<circle cx="318.5" cy="354.5" r="48" stroke="#464794" stroke-opacity="0.2"/>
<circle cx="367" cy="403" r="22.5" stroke="#464794" stroke-opacity="0.2"/>
<circle cx="176.5" cy="894.5" r="223" stroke="#464794" stroke-opacity="0.2"/>
<circle cx="1530.5" cy="2235.5" r="223" stroke="#464794" stroke-opacity="0.2"/>
<circle cx="597.5" cy="1285.5" r="207" stroke="#464794" stroke-opacity="0.25"/>
<circle cx="1571" cy="157" r="263.5" stroke="#464794" stroke-opacity="0.1"/>
<circle cx="631" cy="1650" r="263.5" stroke="#464794" stroke-opacity="0.1"/>
<circle cx="499" cy="942" r="263.5" stroke="#464794" stroke-opacity="0.1"/>
<circle cx="1611.5" cy="583.5" r="223" stroke="#464794" stroke-opacity="0.4"/>
<path d="M1792.5 907C1792.5 1021.6 1699.82 1114.5 1585.5 1114.5C1471.18 1114.5 1378.5 1021.6 1378.5 907C1378.5 792.4 1471.18 699.5 1585.5 699.5C1699.82 699.5 1792.5 792.4 1792.5 907Z" stroke="#464794" stroke-opacity="0.2"/>
<path d="M206.5 1414C206.5 1528.6 113.822 1621.5 -0.5 1621.5C-114.822 1621.5 -207.5 1528.6 -207.5 1414C-207.5 1299.4 -114.822 1206.5 -0.5 1206.5C113.822 1206.5 206.5 1299.4 206.5 1414Z" stroke="#464794" stroke-opacity="0.2"/>
</g>
</svg>
