<svg width="400" height="294" viewBox="0 0 400 294" fill="none" xmlns="http://www.w3.org/2000/svg">
<mask id="path-1-inside-1" fill="white">
<path fill-rule="evenodd" clip-rule="evenodd" d="M31.9846 1.00215C32.0016 0.450124 32.4477 0 33 0H367C367.552 0 367.998 0.450123 368.015 1.00215C368.535 17.8788 382.121 31.4654 398.998 31.9846C399.55 32.0016 400 32.4477 400 33V261C400 261.552 399.55 261.998 398.998 262.015C382.121 262.535 368.535 276.121 368.015 292.998C367.998 293.55 367.552 294 367 294H33C32.4477 294 32.0016 293.55 31.9846 292.998C31.4654 276.121 17.8788 262.535 1.00215 262.015C0.450124 261.998 0 261.552 0 261V33C0 32.4477 0.450123 32.0016 1.00215 31.9846C17.8788 31.4654 31.4654 17.8788 31.9846 1.00215Z"/>
</mask>
<path fill-rule="evenodd" clip-rule="evenodd" d="M31.9846 1.00215C32.0016 0.450124 32.4477 0 33 0H367C367.552 0 367.998 0.450123 368.015 1.00215C368.535 17.8788 382.121 31.4654 398.998 31.9846C399.55 32.0016 400 32.4477 400 33V261C400 261.552 399.55 261.998 398.998 262.015C382.121 262.535 368.535 276.121 368.015 292.998C367.998 293.55 367.552 294 367 294H33C32.4477 294 32.0016 293.55 31.9846 292.998C31.4654 276.121 17.8788 262.535 1.00215 262.015C0.450124 261.998 0 261.552 0 261V33C0 32.4477 0.450123 32.0016 1.00215 31.9846C17.8788 31.4654 31.4654 17.8788 31.9846 1.00215Z" fill="#7B8BA2"/>
<path d="M1.00215 31.9846L0.909903 28.986L1.00215 31.9846ZM1.00215 262.015L1.09439 259.017L1.00215 262.015ZM368.015 292.998L371.014 293.09L368.015 292.998ZM398.998 262.015L399.09 265.014L398.998 262.015ZM398.998 31.9846L398.906 34.9832L398.998 31.9846ZM31.9846 1.00215L28.986 0.909904L31.9846 1.00215ZM368.015 1.00215L365.017 1.09439L368.015 1.00215ZM367 -3H33V3H367V-3ZM399.09 28.986C383.798 28.5156 371.484 16.202 371.014 0.909903L365.017 1.09439C365.585 19.5555 380.444 34.4153 398.906 34.9832L399.09 28.986ZM403 261V33H397V261H403ZM371.014 293.09C371.484 277.798 383.798 265.484 399.09 265.014L398.906 259.017C380.444 259.585 365.585 274.444 365.017 292.906L371.014 293.09ZM33 297H367V291H33V297ZM0.909904 265.014C16.202 265.484 28.5156 277.798 28.986 293.09L34.9832 292.906C34.4153 274.444 19.5555 259.585 1.09439 259.017L0.909904 265.014ZM-3 33V261H3V33H-3ZM28.986 0.909904C28.5156 16.202 16.202 28.5156 0.909903 28.986L1.09439 34.9832C19.5555 34.4153 34.4153 19.5555 34.9832 1.09439L28.986 0.909904ZM3 33C3 34.1362 2.09416 34.9524 1.09439 34.9832L0.909903 28.986C-1.19392 29.0507 -3 30.7592 -3 33H3ZM1.09439 259.017C2.09414 259.048 3 259.864 3 261H-3C-3 263.241 -1.19389 264.949 0.909904 265.014L1.09439 259.017ZM33 291C34.1362 291 34.9524 291.906 34.9832 292.906L28.986 293.09C29.0507 295.194 30.7592 297 33 297V291ZM365.017 292.906C365.048 291.906 365.864 291 367 291V297C369.241 297 370.949 295.194 371.014 293.09L365.017 292.906ZM397 261C397 259.864 397.906 259.048 398.906 259.017L399.09 265.014C401.194 264.949 403 263.241 403 261H397ZM398.906 34.9832C397.906 34.9524 397 34.1362 397 33H403C403 30.7592 401.194 29.0507 399.09 28.986L398.906 34.9832ZM33 -3C30.7592 -3 29.0507 -1.1939 28.986 0.909904L34.9832 1.09439C34.9524 2.09415 34.1362 3 33 3V-3ZM367 3C365.864 3 365.048 2.09416 365.017 1.09439L371.014 0.909903C370.949 -1.19392 369.241 -3 367 -3V3Z" fill="#D1D1D1" mask="url(#path-1-inside-1)"/>
<mask id="path-3-inside-2" fill="white">
<path fill-rule="evenodd" clip-rule="evenodd" d="M52.1416 25.0014C52.1619 24.4495 52.6077 24 53.16 24H346.84C347.392 24 347.838 24.4495 347.858 25.0014C348.385 39.3251 360.163 50.7755 374.616 50.7755H375C375.552 50.7755 376 51.2232 376 51.7755L376 242.224C376 242.777 375.552 243.224 375 243.224H374.615C360.163 243.224 348.385 254.675 347.858 268.999C347.838 269.551 347.392 270 346.84 270H53.16C52.6077 270 52.1619 269.551 52.1416 268.999C51.615 254.675 39.8369 243.224 25.3845 243.224H25C24.4477 243.224 24 243.672 24 244.224L24 270V51.7755C24 51.2232 24.4477 50.7755 25 50.7755H25.3845C39.8369 50.7755 51.615 39.3251 52.1416 25.0014Z"/>
</mask>
<path fill-rule="evenodd" clip-rule="evenodd" d="M52.1416 25.0014C52.1619 24.4495 52.6077 24 53.16 24H346.84C347.392 24 347.838 24.4495 347.858 25.0014C348.385 39.3251 360.163 50.7755 374.616 50.7755H375C375.552 50.7755 376 51.2232 376 51.7755L376 242.224C376 242.777 375.552 243.224 375 243.224H374.615C360.163 243.224 348.385 254.675 347.858 268.999C347.838 269.551 347.392 270 346.84 270H53.16C52.6077 270 52.1619 269.551 52.1416 268.999C51.615 254.675 39.8369 243.224 25.3845 243.224H25C24.4477 243.224 24 243.672 24 244.224L24 270V51.7755C24 51.2232 24.4477 50.7755 25 50.7755H25.3845C39.8369 50.7755 51.615 39.3251 52.1416 25.0014Z" fill="#F3F3F3"/>
<path d="M52.1416 268.999L49.1436 269.109L52.1416 268.999ZM376 242.224L373 242.224L376 242.224ZM376 51.7755L379 51.7755L376 51.7755ZM347.858 268.999L350.856 269.109L347.858 268.999ZM52.1416 25.0014L49.1436 24.8912L52.1416 25.0014ZM347.858 25.0014L350.856 24.8912L347.858 25.0014ZM346.84 21H53.16V27H346.84V21ZM374.616 47.7755C361.783 47.7755 351.324 37.608 350.856 24.8912L344.86 25.1116C345.446 41.0423 358.543 53.7755 374.616 53.7755V47.7755ZM375 47.7755H374.616V53.7755H375V47.7755ZM379 242.224L379 51.7755L373 51.7755L373 242.224L379 242.224ZM374.615 246.224H375V240.224H374.615V246.224ZM350.856 269.109C351.324 256.392 361.783 246.224 374.615 246.224V240.224C358.543 240.224 345.446 252.958 344.86 268.888L350.856 269.109ZM53.16 273H346.84V267H53.16V273ZM25.3845 246.224C38.217 246.224 48.6761 256.392 49.1436 269.109L55.1396 268.888C54.5539 252.958 41.4568 240.224 25.3845 240.224V246.224ZM25 246.224H25.3845V240.224H25V246.224ZM27 270L27 244.224L21 244.224L21 270L27 270ZM21 51.7755V270H27V51.7755H21ZM25.3845 47.7755H25V53.7755H25.3845V47.7755ZM49.1436 24.8912C48.6761 37.608 38.217 47.7755 25.3845 47.7755V53.7755C41.4568 53.7755 54.5539 41.0423 55.1396 25.1116L49.1436 24.8912ZM25 240.224C22.7909 240.224 21 242.015 21 244.224L27 244.224C27 245.329 26.1046 246.224 25 246.224V240.224ZM53.16 267C54.2979 267 55.1034 267.905 55.1396 268.888L49.1436 269.109C49.2204 271.196 50.9175 273 53.16 273V267ZM373 242.224C373 241.12 373.895 240.224 375 240.224V246.224C377.209 246.224 379 244.434 379 242.224L373 242.224ZM375 53.7755C373.895 53.7755 373 52.8801 373 51.7755L379 51.7755C379 49.5663 377.209 47.7755 375 47.7755V53.7755ZM344.86 268.888C344.897 267.905 345.702 267 346.84 267V273C349.082 273 350.78 271.196 350.856 269.109L344.86 268.888ZM53.16 21C50.9175 21 49.2204 22.8037 49.1436 24.8912L55.1396 25.1116C55.1034 26.0953 54.2979 27 53.16 27V21ZM27 51.7755C27 52.8801 26.1046 53.7755 25 53.7755V47.7755C22.7909 47.7755 21 49.5664 21 51.7755H27ZM346.84 27C345.702 27 344.897 26.0953 344.86 25.1116L350.856 24.8912C350.78 22.8037 349.082 21 346.84 21V27Z" fill="#D1D1D1" mask="url(#path-3-inside-2)"/>
<path d="M336.188 148.231L331.679 155.047L312.461 121.406L325.481 113.876L344.699 147.517L336.576 148.006L336.326 148.021L336.188 148.231Z" fill="#F2CB60" stroke="#445772"/>
<path d="M319.757 127.246L326.7 123.231L338.62 144.097L333.743 143.572L331.676 148.112L319.757 127.246Z" fill="#CEAC50"/>
<path d="M303.634 148.006L295.515 147.517L314.991 113.876L327.954 121.406L308.477 155.047L304.021 148.231L303.884 148.021L303.634 148.006Z" fill="#F2CB60" stroke="#99AAC1"/>
<path d="M313.772 123.231L320.685 127.246L308.605 148.112L306.635 143.608L301.692 144.097L313.772 123.231Z" fill="#FEDC7F"/>
<path d="M351.376 96.1251C351.309 113.593 337.15 127.75 319.755 127.75C302.36 127.75 288.309 113.593 288.376 96.1251C288.444 78.6572 302.603 64.5 319.998 64.5C337.393 64.5 351.444 78.6572 351.376 96.1251Z" fill="url(#paint0_linear)" stroke="#636A73"/>
<path d="M327.969 72.0313V72.0313C336.806 72.0313 343.941 79.2573 343.907 88.0938V88.0938L324.896 91.1056L327.969 72.0313Z" fill="#A1B7D7" fill-opacity="0.8"/>
<path d="M48.2644 90L71.4674 89.9555L71.4973 74.4868L48.2942 74.5312L48.2644 90ZM70.7643 89.9568L93.9674 89.9124L93.9973 74.4436L70.7942 74.4881L70.7643 89.9568ZM93.2643 89.9137L116.467 89.8692L116.497 74.4005L93.2941 74.445L93.2643 89.9137ZM115.764 89.8706L138.967 89.8261L138.997 74.3574L115.794 74.4019L115.764 89.8706ZM138.264 89.8274L161.467 89.783L161.497 74.3142L138.294 74.3587L138.264 89.8274ZM160.764 89.7843L183.967 89.7398L183.997 74.2711L160.794 74.3156L160.764 89.7843ZM183.264 89.7412L206.467 89.6967L206.497 74.228L183.294 74.2725L183.264 89.7412ZM205.764 89.6981L228.967 89.6536L228.997 74.1849L205.794 74.2293L205.764 89.6981ZM228.264 89.6549L251.467 89.6105L251.497 74.1417L228.294 74.1862L228.264 89.6549ZM250.764 89.6118L273.967 89.5673L273.997 74.0986L250.794 74.1431L250.764 89.6118ZM48.1756 136L71.3787 135.955L71.4085 120.487L48.2055 120.531L48.1756 136ZM70.6756 135.957L93.8786 135.912L93.9085 120.444L70.7054 120.488L70.6756 135.957ZM93.1755 135.914L116.379 135.869L116.408 120.4L93.2054 120.445L93.1755 135.914ZM115.675 135.87L138.879 135.826L138.908 120.357L115.705 120.402L115.675 135.87ZM138.175 135.827L161.379 135.783L161.408 120.314L138.205 120.359L138.175 135.827ZM48.0946 178L62.2742 177.973L62.2925 168.52L48.1128 168.547L48.0946 178ZM61.8445 177.973L76.0242 177.946L76.0424 168.493L61.8628 168.52L61.8445 177.973ZM75.5945 177.947L89.7742 177.92L89.7924 168.467L75.6127 168.494L75.5945 177.947ZM89.3445 177.921L103.524 177.894L103.542 168.44L89.3627 168.468L89.3445 177.921ZM103.094 177.894L117.274 177.867L117.292 168.414L103.113 168.441L103.094 177.894ZM116.844 177.868L131.024 177.841L131.042 168.388L116.863 168.415L116.844 177.868ZM130.594 177.842L144.774 177.814L144.792 168.361L130.613 168.389L130.594 177.842ZM171.93 177.762L186.11 177.735L186.128 168.282L171.949 168.309L171.93 177.762ZM185.68 177.736L199.86 177.709L199.878 168.256L185.698 168.283L185.68 177.736ZM199.43 177.71L213.61 177.683L213.628 168.229L199.448 168.257L199.43 177.71ZM48.0675 192L62.2472 191.973L62.2654 182.519L48.0858 182.547L48.0675 192ZM61.8175 191.973L75.9972 191.946L76.0154 182.493L61.8358 182.52L61.8175 191.973ZM75.5675 191.947L89.7472 191.92L89.7654 182.467L75.5857 182.494L75.5675 191.947ZM89.3175 191.921L103.497 191.894L103.515 182.44L89.3357 182.468L89.3175 191.921ZM103.067 191.894L117.247 191.867L117.265 182.414L103.086 182.441L103.067 191.894ZM116.817 191.868L130.997 191.841L131.015 182.388L116.836 182.415L116.817 191.868ZM130.567 191.842L144.747 191.814L144.765 182.361L130.586 182.389L130.567 191.842ZM144.317 191.815L158.497 191.788L158.515 182.335L144.336 182.362L144.317 191.815ZM158.067 191.789L172.247 191.762L172.265 182.309L158.086 182.336L158.067 191.789ZM171.817 191.763L185.997 191.735L186.015 182.282L171.836 182.309L171.817 191.763ZM48.0405 206L62.2202 205.973L62.2384 196.519L48.0588 196.547L48.0405 206ZM61.7905 205.973L75.9702 205.946L75.9884 196.493L61.8087 196.52L61.7905 205.973ZM75.5405 205.947L89.7201 205.92L89.7384 196.467L75.5587 196.494L75.5405 205.947ZM89.2905 205.921L103.47 205.893L103.488 196.44L89.3087 196.468L89.2905 205.921ZM103.04 205.894L117.22 205.867L117.238 196.414L103.059 196.441L103.04 205.894ZM116.79 205.868L130.97 205.841L130.988 196.388L116.809 196.415L116.79 205.868ZM158.126 205.789L172.306 205.762L172.324 196.308L158.145 196.336L158.126 205.789ZM171.876 205.762L186.056 205.735L186.074 196.282L171.894 196.309L171.876 205.762ZM185.626 205.736L199.806 205.709L199.824 196.256L185.644 196.283L185.626 205.736ZM199.376 205.71L213.556 205.682L213.574 196.229L199.394 196.257L199.376 205.71ZM213.126 205.683L227.306 205.656L227.324 196.203L213.144 196.23L213.126 205.683ZM226.876 205.657L241.056 205.63L241.074 196.177L226.894 196.204L226.876 205.657ZM48.0135 220L62.1932 219.973L62.2114 210.519L48.0318 210.547L48.0135 220ZM61.7635 219.973L75.9432 219.946L75.9614 210.493L61.7817 210.52L61.7635 219.973ZM75.5135 219.947L89.6931 219.92L89.7114 210.467L75.5317 210.494L75.5135 219.947ZM89.2634 219.921L103.443 219.893L103.461 210.44L89.2817 210.468L89.2634 219.921ZM103.013 219.894L117.193 219.867L117.211 210.414L103.032 210.441L103.013 219.894ZM116.763 219.868L130.943 219.841L130.961 210.388L116.782 210.415L116.763 219.868ZM130.513 219.842L144.693 219.814L144.711 210.361L130.532 210.388L130.513 219.842ZM144.263 219.815L158.443 219.788L158.461 210.335L144.282 210.362L144.263 219.815ZM185.599 219.736L199.779 219.709L199.797 210.256L185.617 210.283L185.599 219.736ZM199.349 219.71L213.529 219.682L213.547 210.229L199.367 210.257L199.349 219.71ZM213.099 219.683L227.279 219.656L227.297 210.203L213.117 210.23L213.099 219.683ZM226.849 219.657L241.029 219.63L241.047 210.177L226.867 210.204L226.849 219.657ZM47.9865 234L62.1662 233.973L62.1844 224.519L48.0047 224.547L47.9865 234ZM61.7365 233.973L75.9161 233.946L75.9344 224.493L61.7547 224.52L61.7365 233.973ZM75.4864 233.947L89.6661 233.92L89.6844 224.467L75.5047 224.494L75.4864 233.947ZM89.2364 233.921L103.416 233.893L103.434 224.44L89.2547 224.468L89.2364 233.921ZM102.986 233.894L117.166 233.867L117.184 224.414L103.005 224.441L102.986 233.894ZM116.736 233.868L130.916 233.841L130.934 224.388L116.755 224.415L116.736 233.868ZM130.486 233.842L144.666 233.814L144.684 224.361L130.505 224.388L130.486 233.842ZM144.236 233.815L158.416 233.788L158.434 224.335L144.255 224.362L144.236 233.815ZM157.986 233.789L172.166 233.762L172.184 224.309L158.005 224.336L157.986 233.789ZM171.736 233.762L185.916 233.735L185.934 224.282L171.755 224.309L171.736 233.762ZM213.072 233.683L227.252 233.656L227.27 224.203L213.09 224.23L213.072 233.683ZM226.822 233.657L241.002 233.63L241.02 224.177L226.84 224.204L226.822 233.657ZM240.572 233.631L254.752 233.603L254.77 224.15L240.59 224.177L240.572 233.631Z" fill="#17BC59"/>
<defs>
<linearGradient id="paint0_linear" x1="320" y1="64" x2="322.015" y2="145.309" gradientUnits="userSpaceOnUse">
<stop stop-color="#9AABC4"/>
<stop offset="1" stop-color="#617084"/>
</linearGradient>
</defs>
</svg>
