<svg width="25" height="24" viewBox="0 0 25 24" fill="none" xmlns="http://www.w3.org/2000/svg">
<path d="M12.3429 0.000642806C9.10394 -0.0328495 5.98446 1.24365 3.67002 3.5496C1.35557 5.85556 0.0355252 9.00227 0 12.2982C0.0124802 14.9029 0.835884 17.4366 2.35195 19.5353C3.86801 21.634 5.99871 23.1898 8.43803 23.9791C9.05517 24.0933 9.27958 23.7165 9.27958 23.3854V21.2958C5.84603 22.038 5.11668 19.6516 5.11668 19.6516C4.8881 18.9024 4.40217 18.262 3.74774 17.8475C2.62566 17.0939 3.83751 17.1053 3.83751 17.1053C4.22535 17.1581 4.59643 17.2995 4.9229 17.519C5.24938 17.7385 5.52278 18.0304 5.7226 18.3727C6.07081 18.9872 6.64218 19.438 7.31372 19.628C7.98525 19.8181 8.70328 19.7322 9.31325 19.389C9.37598 18.7637 9.65424 18.1812 10.0987 17.7447C7.36083 17.4364 4.48831 16.386 4.48831 11.6702C4.46383 10.4401 4.91049 9.24848 5.73382 8.34745C5.35885 7.29133 5.40313 6.12808 5.85725 5.10464C5.85725 5.10464 6.90078 4.77351 9.22348 6.36066C11.2453 5.81239 13.373 5.81239 15.3949 6.36066C17.7513 4.77351 18.7611 5.10464 18.7611 5.10464C19.2153 6.12808 19.2595 7.29133 18.8846 8.34745C19.727 9.23197 20.1979 10.4155 20.1974 11.6473C20.1974 16.3745 17.3024 17.4136 14.587 17.7219C14.8843 18.0157 15.114 18.3728 15.2595 18.7677C15.405 19.1625 15.4628 19.5853 15.4286 20.0056V23.374C15.4286 23.7736 15.653 24.0933 16.2701 23.9677C18.7025 23.1735 20.8261 21.6173 22.3374 19.5216C23.8488 17.4258 24.6707 14.8977 24.6857 12.2982C24.6502 9.00227 23.3301 5.85556 21.0157 3.5496C18.7012 1.24365 15.5818 -0.0328495 12.3429 0.000642806Z" fill="#464794"/>
</svg>
