<svg width="24" height="24" viewBox="0 0 24 24" fill="none" xmlns="http://www.w3.org/2000/svg">
<path d="M24 0H0V24H24V0Z" fill="#464794"/>
<path d="M9.21598 18.0961C14.874 18.0961 17.97 13.4041 17.97 9.34205C17.97 9.21005 17.97 9.07805 17.964 8.94605C18.564 8.51405 19.086 7.96805 19.5 7.35005C18.948 7.59605 18.354 7.75805 17.73 7.83605C18.366 7.45805 18.852 6.85205 19.086 6.13205C18.492 6.48605 17.832 6.73805 17.13 6.87605C16.566 6.27605 15.768 5.90405 14.886 5.90405C13.188 5.90405 11.808 7.28405 11.808 8.98205C11.808 9.22205 11.838 9.45605 11.886 9.68405C9.32998 9.55805 7.06198 8.32805 5.54398 6.46805C5.27998 6.92405 5.12998 7.45205 5.12998 8.01605C5.12998 9.08405 5.67598 10.0261 6.49798 10.5781C5.99398 10.5601 5.51998 10.4221 5.10598 10.1941C5.10598 10.2061 5.10598 10.2181 5.10598 10.2361C5.10598 11.7241 6.16798 12.9721 7.57198 13.2541C7.31398 13.3261 7.04398 13.3621 6.76198 13.3621C6.56398 13.3621 6.37198 13.3441 6.18598 13.3081C6.57598 14.5321 7.71598 15.4201 9.05998 15.4441C8.00398 16.2721 6.67798 16.7641 5.23798 16.7641C4.99198 16.7641 4.74598 16.7521 4.50598 16.7221C5.86198 17.5861 7.48198 18.0961 9.21598 18.0961Z" fill="#FAFAFA"/>
</svg>
